<?xml version="1.0"?><svg width="1600" height="1200" xmlns="http://www.w3.org/2000/svg">
 <title>Big-Blue-Whale</title>
 <g>
  <title>Layer 1</title>
  <switch>
   <g>
    <g id="Layer_1">
     <g>
      <linearGradient gradientTransform="translate(192, -100) translate(204, 193) translate(-386, -125) matrix(1.7228, -0.637503, 0.637503, 1.7228, 909.521, -1282.84)" y2="4.39232" x2="-0.824244" y1="4.39232" x1="-0.824244" id="XMLID_1_">
       <stop stop-color="#000000" offset="0.12"/>
       <stop stop-color="#000000" offset="0.88"/>
      </linearGradient>
      <path d="m70.62616,254.044769c16.905365,-1.861603 21.256012,-14.593903 76.518097,-5.806793c172.67337,37.279388 247.631775,-2.101288 389.303009,45.095825c17.325684,6.268524 39.389648,7.153381 61.284973,7.59436c89.570068,3.598907 179.483459,20.00708 271.625366,52.929932c8.952881,3.930389 49.683228,-2.083557 89.632263,7.976166c39.718079,10.14563 78.575073,36.131165 56.673767,42.677826c-10.074524,4.24707 -8.35498,14.484497 2.690308,21.261963c128.418152,90.395813 228.021301,170.758423 321.11322,317.440308c4.057739,6.777466 6.999634,9.831909 15.59729,12.084167c65.147217,22.206177 105.253052,60.675171 152.34668,106.123352c22.359985,19.154663 44.394287,14.368835 46.288574,22.984314c1.518311,22.981506 -63.835938,10.675293 -83.908447,-6.472717c-13.85083,-15.061462 -80.258911,-14.806946 -111.033081,-37.841797c-2.749634,-1.82605 -5.209106,2.71405 -8.58606,2.657837c-20.844604,64.647095 -112.974609,48.531799 -127.66626,68.982849c-12.027832,24.117981 -31.058228,36.33844 -30.608398,-1.612976c3.335449,-55.309448 30.259155,-93.734192 70.877075,-140.602905c3.575195,-5.717957 -3.948242,-12.7677 -12.764893,-17.011902c-55.711914,-22.590759 -97.670532,-54.15509 -152.183838,-72.800781c-81.034485,-19.69928 -194.891174,4.063599 -266.540894,-12.634521c31.280396,64.241455 86.805908,90.522949 82.878479,99.48468c-19.497986,35.417786 -67.810913,48.895996 -104.344543,49.479065c-28.477539,-2.142761 -17.112488,-16.174438 -37.155212,-18.592346c-18.604065,-0.624451 -5.45752,-18.94165 -26.171692,-30.161621c-19.755615,-10.036011 -1.31427,-30.833313 -20.933594,-39.093628c-51.092041,-14.987549 -9.645447,-34.470764 -27.672546,-50.304749c-31.55835,-25.843384 3.607788,-25.920288 -26.029785,-42.378906c-15.256897,-6.262512 -45.439209,-15.79248 -56.910583,-21.637756c-19.441772,-9.885071 2.222595,89.223755 -18.78479,132.446167c-67.899658,102.49762 -85.284485,219.166138 -121.89798,329.998047c-3.042542,7.857788 -6.679871,9.204468 -12.081207,8.612549c-21.279724,-5.057983 -30.76236,-25.094727 -37.078125,-42.168701c-27.039215,-84.955933 30.259125,-171.362366 18.251923,-200.310364c-15.765869,-38.407043 25.30777,-12.729309 19.122131,-28.033508c-17.707428,-48.561584 16.384491,-31.943359 7.769043,-48.934448c-12.084137,-29.164124 17.091827,-50.31366 3.006989,-77.181152c-5.59668,-6.733154 -4.226349,-14.220947 10.447479,-18.621887c23.676971,-10.832214 16.020386,-38.528442 21.078369,-59.805115c2.589691,-19.589844 15.665314,-42.28717 3.735107,-47.960754c-140.38681,-40.94342 -221.098724,-161.15152 -360.674606,-193.600769c-12.001236,-3.066193 -26.524155,5.93396 -35.127762,-8.218872c-8.606567,-12.081238 -22.351074,-12.170044 -28.089813,-25.571198c-11.98053,-21.187927 -25.651031,-25.958893 -32.008301,-46.634766c-5.561157,-15.026062 3.631439,-32.144531 18.012268,-33.834473z" stroke-miterlimit="2.4142" stroke-linejoin="bevel" stroke-width="0" stroke="#000000" fill="url(#XMLID_1_)" clip-rule="evenodd" fill-rule="evenodd"/>
      <linearGradient gradientTransform="translate(192, -100) translate(204, 193) translate(-386, -125) matrix(1.7228, -0.637503, 0.637503, 1.7228, 909.521, -1282.84)" y2="7.493162" x2="-3.121699" y1="7.493162" x1="-3.121699" id="XMLID_2_">
       <stop stop-color="#64777D" offset="0.1"/>
       <stop stop-color="#6FABBC" offset="0.9"/>
      </linearGradient>
      <path d="m75.213562,258.037354c12.270599,-0.402527 23.478699,-9.97995 36.956848,-8.500122c55.845123,5.469391 98.23288,10.225586 163.667206,24.822418c61.675598,17.026703 100.251343,81.41925 137.214081,105.776978c48.824921,32.650543 105.140686,14.916504 149.200562,59.159882c10.024231,20.098877 9.015015,24.357727 4.389099,28.652161c9.003174,0.550476 3.119446,8.420105 26.171997,30.16449c25.292908,29.193726 25.677673,45.610718 44.87384,92.588867c6.682861,11.758606 21.173096,15.970032 26.059448,29.167114c-56.437073,-7.058777 -112.388794,-53.376831 -166.505493,-76.55365c-35.127777,-15.209534 -85.601166,-27.841125 -120.802948,-52.337952c-76.840759,-55.91925 -141.336853,-116.931885 -236.63382,-129.016022c-32.546967,-1.932556 -17.473602,-12.939423 -33.929108,-16.168396c-20.31189,-5.93399 -7.043884,-13.433716 -28.415344,-30.62619c-38.407043,-31.07312 -17.444,-56.940216 -2.246368,-57.129578z" stroke-miterlimit="2.4142" stroke-linejoin="bevel" stroke-width="0" stroke="#000000" fill="url(#XMLID_2_)" clip-rule="evenodd" fill-rule="evenodd"/>
      <linearGradient gradientTransform="translate(192, -100) translate(204, 193) translate(-386, -125) matrix(1.7228, -0.637503, 0.637503, 1.7228, 909.521, -1282.84)" y2="18.681133" x2="-10.628112" y1="18.681133" x1="-10.628112" id="XMLID_3_">
       <stop stop-color="#7A97A3" offset="0.09"/>
       <stop stop-color="#59BBD2" offset="0.91"/>
      </linearGradient>
      <path d="m287.320953,273.220123c12.58136,-0.260437 26.604065,1.278564 42.14209,1.997803c66.561951,16.254211 65.851654,100.35495 143.559509,121.539886c-90.884155,-8.547394 -112.63147,-100.896515 -185.701599,-123.537689z" stroke-miterlimit="2.4142" stroke-linejoin="bevel" stroke-width="0" stroke="#000000" fill="url(#XMLID_3_)" clip-rule="evenodd" fill-rule="evenodd"/>
      <linearGradient gradientTransform="translate(192, -100) translate(204, 193) translate(-386, -125) matrix(1.7228, -0.637503, 0.637503, 1.7228, 909.521, -1282.84)" y2="15.354934" x2="-6.836347" y1="15.354934" x1="-6.836347" id="XMLID_4_">
       <stop stop-color="#7A97A3" offset="0.11"/>
       <stop stop-color="#59BBD2" offset="0.89"/>
      </linearGradient>
      <path d="m337.418549,274.341888c73.561401,7.197784 87.971832,109.76651 173.611481,108.345917c16.301636,0.701416 52.654663,-17.14801 101.509216,14.188446c-11.134155,-0.020721 -43.725464,3.50119 -46.475037,34.535858c-41.366638,-29.969177 -98.502167,-32.632904 -135.556702,-62.137299c-32.952393,-31.013947 -46.158234,-77.882538 -93.088959,-94.932922z" stroke-miterlimit="2.4142" stroke-linejoin="bevel" stroke-width="0" stroke="#000000" fill="url(#XMLID_4_)" clip-rule="evenodd" fill-rule="evenodd"/>
      <linearGradient gradientTransform="translate(192, -100) translate(204, 193) translate(-386, -125) matrix(1.7228, -0.637503, 0.637503, 1.7228, 909.521, -1282.84)" y2="6.147453" x2="-1.440543" y1="6.147453" x1="-1.440543" id="XMLID_5_">
       <stop stop-color="#6F838B" offset="0.1"/>
       <stop stop-color="#4EBDD7" offset="0.9"/>
      </linearGradient>
      <path d="m358.322327,274.889404c108.511627,-8.846344 167.940918,26.607086 194.468018,27.660675c137.003906,3.116455 309.014282,36.503967 418.659485,99.949463c145.998291,90.36618 279.728882,200.017303 365.125854,346.175385c-5.297852,-2.426941 -11.660767,-9.130554 -15.881226,-4.463196c-9.775757,13.448608 10.814331,58.609497 35.50061,90.360291c-27.192993,23.005249 -104.341553,-126.731018 -170.628174,-160.426453c-35.216675,-13.35968 -140.727173,-126.470581 -193.757813,-158.594299c-91.416809,-62.427429 -163.344543,-66.606384 -182.149963,-66.372498c-82.218323,-1.923889 -158.922913,-51.163086 -235.858459,-72.377686c-37.471741,-11.752686 -62.205322,6.715393 -99.845825,-5.493073c-55.812592,-25.659912 -68.160126,-79.309052 -115.632507,-96.41861z" stroke-miterlimit="2.4142" stroke-linejoin="bevel" stroke-width="0" stroke="#000000" fill="url(#XMLID_5_)" clip-rule="evenodd" fill-rule="evenodd"/>
      <linearGradient gradientTransform="translate(192, -100) translate(204, 193) translate(-386, -125) matrix(1.7228, -0.637503, 0.637503, 1.7228, 909.521, -1282.84)" y2="95.403965" x2="-56.667237" y1="95.403965" x1="-56.667237" id="XMLID_6_">
       <stop stop-color="#000000" offset="0.1"/>
       <stop stop-color="#000000" offset="0.9"/>
      </linearGradient>
      <path d="m446.15213,312.254669c5.735779,1.500488 9.751953,-9.305023 21.865723,-5.250336c9.57135,6.295105 7.384216,14.351166 9.458923,19.273041c1.577484,3.560486 -1.888245,3.288177 -6.591064,0.369934c-2.560089,1.462097 -9.894043,2.631134 -14.886932,0.334442c-5.549286,-3.125336 -6.07019,-7.330963 -8.053131,-9.180725c-3.166809,-2.968536 -9.891083,-4.365448 -1.793518,-5.546356z" stroke-miterlimit="2.4142" stroke-linejoin="bevel" stroke-width="0" stroke="#000000" fill="url(#XMLID_6_)" clip-rule="evenodd" fill-rule="evenodd"/>
      <linearGradient gradientTransform="translate(192, -100) translate(204, 193) translate(-386, -125) matrix(1.7228, -0.637503, 0.637503, 1.7228, 909.521, -1282.84)" y2="117.037667" x2="-90.423538" y1="117.037667" x1="-90.423538" id="XMLID_7_">
       <stop stop-color="#7A97A3" offset="0.07"/>
       <stop stop-color="#59BBD2" offset="0.93"/>
      </linearGradient>
      <path d="m453.512695,311.864014c6.697662,-6.36319 19.021545,-5.235657 21.987061,12.560638c1.405792,10.089355 -6.161926,-14.540649 -21.987061,-12.560638z" stroke-miterlimit="2.4142" stroke-linejoin="bevel" stroke-width="0" stroke="#000000" fill="url(#XMLID_7_)" clip-rule="evenodd" fill-rule="evenodd"/>
      <linearGradient gradientTransform="translate(192, -100) translate(204, 193) translate(-386, -125) matrix(1.7228, -0.637503, 0.637503, 1.7228, 909.521, -1282.84)" y2="194.13113" x2="-129.646447" y1="194.13113" x1="-129.646447" id="XMLID_8_">
       <stop stop-color="#F0E8B4" offset="0.11"/>
       <stop stop-color="#BEA458" offset="0.89"/>
      </linearGradient>
      <path d="m455.457153,315.024902c0,0 3.32074,0.577057 5.194183,1.435333c-5.330322,3.78537 1.482758,10.320251 4.581482,3.998505c1.473877,0.488373 2.974426,1.743225 3.563385,3.341492c-2.000732,2.290649 -8.023529,3.483398 -11.874054,0.769379c-3.515961,-1.802368 -5.333221,-8.115204 -1.464996,-9.544708z" stroke-miterlimit="2.4142" stroke-linejoin="bevel" stroke-width="0" stroke="#000000" fill="url(#XMLID_8_)" clip-rule="evenodd" fill-rule="evenodd"/>
      <linearGradient gradientTransform="translate(192, -100) translate(204, 193) translate(-386, -125) matrix(1.7228, -0.637503, 0.637503, 1.7228, 909.521, -1282.84)" y2="9.229036" x2="-2.37604" y1="9.229036" x1="-2.37604" id="XMLID_9_">
       <stop stop-color="#64777D" offset="0.11"/>
       <stop stop-color="#6FABBC" offset="0.89"/>
      </linearGradient>
      <path d="m632.682373,402.363373c40.970093,10.716827 104.140259,42.970795 148.771545,48.194489c22.649902,2.486084 88.735413,11.151855 118.885071,21.990051c159.932129,60.885376 173.797974,144.509644 286.979858,210.529846c27.521606,12.844788 53.812012,48.913696 58.248291,55.291687c-29.809204,-9.926636 -70.021606,-30.495911 -85.900024,-44.027283c-104.726318,-84.411438 -222.640686,-10.767151 -333.66803,-36.693359c-25.168579,-44.252319 -35.657471,-127.829224 -97.504883,-150.230652c-31.783386,-13.856873 13.016479,-8.177368 7.043945,-26.408691c-19.755432,-35.900269 -152.243042,-72.268158 -160.660156,-31.374939c-12.838867,-26.302246 11.19928,-61.335205 57.804382,-47.271149z" stroke-miterlimit="2.4142" stroke-linejoin="bevel" stroke-width="0" stroke="#000000" fill="url(#XMLID_9_)" clip-rule="evenodd" fill-rule="evenodd"/>
      <linearGradient gradientTransform="translate(192, -100) translate(204, 193) translate(-386, -125) matrix(1.7228, -0.637503, 0.637503, 1.7228, 909.521, -1282.84)" y2="43.093735" x2="-12.423484" y1="43.093735" x1="-12.423484" id="XMLID_10_">
       <stop stop-color="#64777D" offset="0.14"/>
       <stop stop-color="#59BBD2" offset="0.86"/>
      </linearGradient>
      <path d="m589.096069,438.420532c37.039734,-13.188171 100.245422,5.857056 137.971802,37.178711c7.014282,5.685486 4.155273,9.846741 0.793152,12.646423c-8.887878,5.356995 -18.80249,0.227905 -23.783508,-4.140381c-81.247681,-75.505981 -130.540222,-26.21344 -119.885559,-7.899231c-13.294617,-12.161133 -8.292908,-32.902222 4.904114,-37.785522z" stroke-miterlimit="2.4142" stroke-linejoin="bevel" stroke-width="0" stroke="#000000" fill="url(#XMLID_10_)" clip-rule="evenodd" fill-rule="evenodd"/>
      <linearGradient gradientTransform="translate(192, -100) translate(204, 193) translate(-386, -125) matrix(1.7228, -0.637503, 0.637503, 1.7228, 909.521, -1282.84)" y2="8.170211" x2="-5.918141" y1="8.170211" x1="-5.918141" id="XMLID_11_">
       <stop stop-color="#64777D" offset="0.05"/>
       <stop stop-color="#59BBD2" offset="0.95"/>
      </linearGradient>
      <path d="m704.071472,498.083496c15.626831,24.751465 48.250793,-17.855408 105.572754,131.454712c11.96875,30.247314 43.790588,92.476379 83.112244,123.215088c12.933411,10.477051 13.371582,14.454834 8.254333,22.30365c-18.393982,29.312073 -76.568359,37.13147 -95.308777,34.743103c-16.718933,-1.832092 -15.304199,-19.693298 -29.25592,-18.929749c-16.562012,0.689514 -11.057068,-23.600037 -22.999268,-27.192993c-20.237915,-3.637451 -8.695313,-38.182129 -25.070862,-41.183289c-43.695923,-9.704529 -5.022461,-33.852112 -25.011841,-48.703613c-25.970642,-17.047424 1.340698,-27.154419 -20.193481,-39.88678c-16.37854,-7.90509 -10.328979,-22.312622 -33.266113,-38.146545c-15.511536,-11.859253 -17.642395,-51.174927 -35.231384,-74.940674c-12.536987,-17.097717 -19.125122,-23.715454 -27.361816,-43.177979c-10.799683,-24.985107 65.165039,-61.640015 116.760132,20.445068z" stroke-miterlimit="2.4142" stroke-linejoin="bevel" stroke-width="0" stroke="#000000" fill="url(#XMLID_11_)" clip-rule="evenodd" fill-rule="evenodd"/>
      <linearGradient gradientTransform="translate(192, -100) translate(204, 193) translate(-386, -125) matrix(1.7228, -0.637503, 0.637503, 1.7228, 909.521, -1282.84)" y2="44.241704" x2="-13.748729" y1="44.241704" x1="-13.748729" id="XMLID_12_">
       <stop stop-color="#64777D" offset="0.13"/>
       <stop stop-color="#59BBD2" offset="0.87"/>
      </linearGradient>
      <path d="m887.594727,359.792145c37.140381,1.775757 101.239929,3.675842 125.251282,33.603577c5.945984,10.480072 -16.902283,6.771637 -7.659424,24.049957c-32.369385,-22.436951 -86.936035,-47.525726 -117.591858,-57.653534z" stroke-miterlimit="2.4142" stroke-linejoin="bevel" stroke-width="0" stroke="#000000" fill="url(#XMLID_12_)" clip-rule="evenodd" fill-rule="evenodd"/>
      <linearGradient gradientTransform="translate(192, -100) translate(204, 193) translate(-386, -125) matrix(1.7228, -0.637503, 0.637503, 1.7228, 909.521, -1282.84)" y2="7.112915" x2="-22.587622" y1="7.112915" x1="-22.587622" id="XMLID_13_">
       <stop stop-color="#64777D" offset="0.06"/>
       <stop stop-color="#6FABBC" offset="0.94"/>
      </linearGradient>
      <path d="m497.587463,666.607483c-2.210815,5.220764 -6.395782,13.49292 -1.982971,24.026245c57.987915,127.331848 14.481415,255.211243 -26.041687,384.839905c-4.176086,13.19397 -29.078369,-1.66626 -38.984253,-29.821167c-14.895721,-49.342773 -5.149719,-89.445679 6.268524,-134.805054c6.756805,-25.795959 21.042938,-44.536316 11.187378,-71.155151c-9.991699,-21.404053 18.355591,-14.043518 23.709595,-5.155701c2.095337,-18.115845 -18.497711,-44.388489 -4.880463,-53.054199c8.905487,-4.590515 9.373077,0.159729 14.71228,13.185059c1.861542,-22.940063 -12.539948,-35.977234 -7.416809,-50.813843c8.023529,-29.368225 14.582062,-42.393616 6.857452,-55.587585c-10.61911,-14.7005 6.227051,-9.023926 16.570953,-21.658508z" stroke-miterlimit="2.4142" stroke-linejoin="bevel" stroke-width="0" stroke="#000000" fill="url(#XMLID_13_)" clip-rule="evenodd" fill-rule="evenodd"/>
      <linearGradient gradientTransform="translate(192, -100) translate(204, 193) translate(-386, -125) matrix(1.7228, -0.637503, 0.637503, 1.7228, 909.521, -1282.84)" y2="22.562583" x2="-7.761542" y1="22.562583" x1="-7.761542" id="XMLID_14_">
       <stop stop-color="#4F5C60" offset="0.09"/>
       <stop stop-color="#759DAA" offset="0.91"/>
      </linearGradient>
      <path d="m1510.246338,870.469299c14.147217,12.353455 33.810791,10.255127 31.700562,18.539124c-2.361816,7.603149 -48.884155,0.751587 -70.853271,-15.964233c-19.72583,-16.236511 -69.178345,-9.322876 -105.418823,-35.243164c-29.829956,-24.668579 -50.61853,-78.05127 -38.596558,-86.122131c10.012329,-3.702515 106.069824,36.305725 183.168091,118.790405z" stroke-miterlimit="2.4142" stroke-linejoin="bevel" stroke-width="0" stroke="#000000" fill="url(#XMLID_14_)" clip-rule="evenodd" fill-rule="evenodd"/>
      <linearGradient gradientTransform="translate(192, -100) translate(204, 193) translate(-386, -125) matrix(1.7228, -0.637503, 0.637503, 1.7228, 909.521, -1282.84)" y2="20.578658" x2="-12.273535" y1="20.578658" x1="-12.273535" id="XMLID_15_">
       <stop stop-color="#4F5C60" offset="0.16"/>
       <stop stop-color="#759DAA" offset="0.84"/>
      </linearGradient>
      <path d="m1345.578979,840.831665c-26.568481,61.071899 -113.848022,47.567078 -122.034302,62.504333c-37.075195,61.323425 -49.55603,-33.932129 42.556396,-126.245728c15.422729,-7.262878 59.713379,62.776611 79.477905,63.741394z" stroke-miterlimit="2.4142" stroke-linejoin="bevel" stroke-width="0" stroke="#000000" fill="url(#XMLID_15_)" clip-rule="evenodd" fill-rule="evenodd"/>
      <path d="m481.3302,791.906128c21.288574,75.707214 -15.609039,128.441589 -18.465088,170.379761c-1.500549,31.605713 18.974152,44.986084 13.845154,87.761597" stroke-miterlimit="2.4142" stroke-linejoin="bevel" stroke-width="0.864" stroke="#000000" fill="none" clip-rule="evenodd" fill-rule="evenodd"/>
      <path d="m471.690735,832.997559c0,0 16.06781,28.732117 3.590027,76.817078" stroke-miterlimit="2.4142" stroke-linejoin="bevel" stroke-width="0.864" stroke="#000000" fill="none" clip-rule="evenodd" fill-rule="evenodd"/>
      <path d="m658.141113,603.318848c52.071594,56.804077 158.75415,57.697937 210.973816,126.088928" stroke-miterlimit="2.4142" stroke-linejoin="bevel" stroke-width="0.864" stroke="#000000" fill="none" clip-rule="evenodd" fill-rule="evenodd"/>
      <path d="m685.887512,637.040833c40.162109,33.002808 68.870422,21.087341 105.617188,36.471497" stroke-miterlimit="2.4142" stroke-linejoin="bevel" stroke-width="0.864" stroke="#000000" fill="none" clip-rule="evenodd" fill-rule="evenodd"/>
      <path d="m210.139877,261.153778c132.333664,19.8591 126.136215,133.159393 194.231247,142.375702c157.123505,21.818298 102.204681,82.499573 164.430756,64.650085" stroke-miterlimit="2.4142" stroke-linejoin="bevel" stroke-width="0.864" stroke="#000000" fill="none" clip-rule="evenodd" fill-rule="evenodd"/>
      <path d="m149.221939,253.162842c107.41362,9.160004 156.561142,143.375977 227.257706,156.806763c123.081848,23.543762 94.101227,64.803955 143.828827,73.312866c49.662476,9.047607 61.802917,46.735413 98.37793,54.673157" stroke-miterlimit="2.4142" stroke-linejoin="bevel" stroke-width="0.864" stroke="#000000" fill="none" clip-rule="evenodd" fill-rule="evenodd"/>
      <path d="m112.087524,249.306427c77.710846,0.224976 183.499634,140.653168 248.723816,165.170685c105.312347,41.24823 84.446991,58.280945 120.640228,75.680542c36.196136,17.399597 43.873444,3.172729 71.362457,17.325684c27.941772,13.97821 48.546692,50.085754 78.646118,66.378418" stroke-miterlimit="2.4142" stroke-linejoin="bevel" stroke-width="0.864" stroke="#000000" fill="none" clip-rule="evenodd" fill-rule="evenodd"/>
      <path d="m89.289551,254.121796c-15.250946,12.628632 40.011169,54.28241 70.560379,63.421692c36.734848,10.468201 102.027145,46.341827 126.378922,63.20575c44.57782,29.56369 83.038147,81.058136 129.276367,107.410736c46.326996,26.589233 106.798004,32.680115 145.99527,52.586548c39.339294,19.601501 58.047058,28.202209 78.364929,53.030579" stroke-miterlimit="2.4142" stroke-linejoin="bevel" stroke-width="0.864" stroke="#000000" fill="none" clip-rule="evenodd" fill-rule="evenodd"/>
      <path d="m55.736298,275.336365c-3.113525,10.46817 50.920349,54.385925 111.293701,69.305481c36.376724,8.792999 93.99765,30.942932 124.342651,54.906952c33.005737,25.562286 50.914398,61.373688 81.821808,81.247589c31.129272,19.791016 61.657776,26.086121 101.032623,44.382507c39.910492,18.34967 105.081512,29.42749 139.510773,60.9328c25.068054,22.2948 24.369507,19.7052 46.717773,26.959106" stroke-miterlimit="2.4142" stroke-linejoin="bevel" stroke-width="0.864" stroke="#000000" fill="none" clip-rule="evenodd" fill-rule="evenodd"/>
      <path d="m78.134735,316.984192c7.635803,8.04425 24.091339,18.260834 40.532074,25.630371c16.357819,7.141541 45.305878,14.025574 63.134659,21.658417c17.917572,7.86377 33.242477,16.423035 44.995163,25.787231" stroke-miterlimit="2.4142" stroke-linejoin="bevel" stroke-width="0.864" stroke="#000000" fill="none" clip-rule="evenodd" fill-rule="evenodd"/>
      <path d="m106.464233,347.388367c14.206207,4.835999 32.242126,4.628845 40.049637,6.141174c8.03244,1.426605 17.731094,4.563782 17.90274,5.016541" stroke-miterlimit="2.4142" stroke-linejoin="bevel" stroke-width="0.864" stroke="#000000" fill="none" clip-rule="evenodd" fill-rule="evenodd"/>
      <path d="m744.979492,516.32666c23.943359,13.64978 48.380981,23.756836 73.351318,29.007263c24.893372,5.022461 64.13501,-6.401733 91.325012,5.537476" stroke-miterlimit="2.4142" stroke-linejoin="bevel" stroke-width="0.864" stroke="#000000" fill="none" clip-rule="evenodd" fill-rule="evenodd"/>
      <path d="m780.989136,556.305298c33.775269,18.550842 89.451721,4.679138 120.424133,7.958374c31.117493,2.980347 114.057983,22.229736 141.925842,47.886719" stroke-miterlimit="2.4142" stroke-linejoin="bevel" stroke-width="0.864" stroke="#000000" fill="none" clip-rule="evenodd" fill-rule="evenodd"/>
      <path d="m1123.541992,672.260315c-21.190918,-18.811279 -49.523315,-28.252563 -102.586487,-47.170532c-31.055298,-10.50354 -67.941101,-32.558777 -113.090271,-41.991028c-45.148987,-9.435364 -65.878174,2.382446 -116.774841,-4.401001" stroke-miterlimit="2.4142" stroke-linejoin="bevel" stroke-width="0.864" stroke="#000000" fill="none" clip-rule="evenodd" fill-rule="evenodd"/>
      <path d="m1042.415649,654.410889c-62.835693,1.51825 -130.924866,-42.642334 -160.006042,-49.209656c-29.090149,-6.576355 -55.15863,-7.795654 -80.714905,-2.737732" stroke-miterlimit="2.4142" stroke-linejoin="bevel" stroke-width="0.864" stroke="#000000" fill="none" clip-rule="evenodd" fill-rule="evenodd"/>
      <path d="m812.337524,629.834106c10.269958,3.965881 88.143555,25.60968 152.861633,27.787964" stroke-miterlimit="2.4142" stroke-linejoin="bevel" stroke-width="0.864" stroke="#000000" fill="none" clip-rule="evenodd" fill-rule="evenodd"/>
      <path d="m819.937805,646.171265c19.649048,9.032776 52.187073,17.950195 82.893188,17.710388" stroke-miterlimit="2.4142" stroke-linejoin="bevel" stroke-width="0.864" stroke="#000000" fill="none" clip-rule="evenodd" fill-rule="evenodd"/>
     </g>
    </g>
   </g>
  </switch>
 </g>
</svg>